<svg xmlns="http://www.w3.org/2000/svg" version="1.1" xmlns:xlink="http://www.w3.org/1999/xlink" xmlns:svgjs="http://svgjs.dev/svgjs" viewBox="0 0 800 800"><defs><linearGradient x1="50%" y1="0%" x2="50%" y2="100%" id="ccchaos-grad"><stop stop-color="hsl(105, 73%, 73%)" stop-opacity="1" offset="0%"></stop><stop stop-color="hsl(105, 96%, 59%)" stop-opacity="1" offset="100%"></stop></linearGradient></defs><g stroke-width="2" stroke="url(#ccchaos-grad)" fill="none" stroke-linecap="round"><path d="M108.38 102.76Q116.94 104.46 125.5 106.46 134.06 108.69 142.62 111.08 151.18 113.57 159.74 116.06 168.3 118.49 176.86 120.78 193.98 124.52 211.1 127.28 228.21 128.05 245.33 127.51 262.45 124.95 279.57 121.37 288.13 119.13 296.69 116.73 305.25 114.24 313.81 111.75 322.37 109.33 330.93 107.05 348.05 103.35 365.16 100.64 382.28 99.94 399.4 100.54 416.52 103.16 433.64 106.78 442.2 109.03 450.76 111.44 459.32 113.93 467.88 116.42 476.43 118.84 484.99 121.1 502.11 124.75 519.23 127.41 536.35 128.05 553.47 127.39 570.59 124.72 587.71 121.06 596.27 118.78 604.82 116.37 613.38 113.88 621.94 111.39 630.5 108.98 639.06 106.73 654.17 108.16 666.01 120.31 671.93 128.99 678.27 137.66 684.86 146.34 691.47 155.02 697.92 163.7 704.01 172.38 709.54 181.05 714.35 189.73 718.29 198.41 721.25 207.09 723.28 224.45 721.86 241.8 719.19 250.48 715.51 259.16 710.92 267.84 705.56 276.51 699.61 285.19 693.24 293.87 686.65 302.55 680.04 311.23 673.61 319.91 667.56 328.58 662.07 337.26 657.32 345.94 653.45 354.62 650.57 363.3 648.7 380.65 650.29 398.01 653.03 406.69 656.79 415.37 661.44 424.04 666.84 432.72 672.83 441.4 679.23 450.08 685.83 458.76 692.43 467.44 698.84 476.11 704.86 484.79 710.29 493.47 714.99 502.15 718.79 510.83 721.59 519.5 723.29 536.86 721.54 554.22 718.72 562.9 714.89 571.57 710.18 580.25 704.73 588.93 698.7 597.61 692.29 606.29 685.68 614.96 679.08 623.64 672.69 632.32 666.71 641 661.33 649.68 656.69 658.36 648.13 662.73 639.56 667.81 631 673.45 622.43 679.47 613.87 685.7 605.3 691.93 596.73 697.98 588.17 703.66 579.6 708.81 571.04 713.25 562.47 716.86 553.9 719.52 536.77 721.17 519.64 719.57 511.08 716.93 502.51 713.34 493.94 708.92 485.38 703.79 476.81 698.11 468.25 692.07 459.68 685.84 451.11 679.61 442.55 673.58 433.98 667.93 425.42 662.83 416.85 658.45 408.28 654.9 399.72 652.31 382.59 650.82 365.46 652.58 356.89 655.29 348.32 658.95 339.76 663.43 331.19 668.6 322.63 674.31 314.06 680.37 305.49 686.61 296.93 692.83 288.36 698.84 279.8 704.45 271.23 709.5 262.67 713.83 254.1 717.31 245.53 719.83 228.4 721.16 211.27 719.25 202.7 716.46 194.14 712.74 185.57 708.21 177.01 702.99 168.44 697.25 159.88 691.16 151.31 684.92 142.74 678.71 134.18 672.73 125.61 667.15 113.2 655.67 110.37 640.52 111.49 631.85 112.69 623.18 113.94 614.5 115.18 605.83 117.47 588.48 119.43 571.13 120.58 553.79 121.12 536.44 120.59 519.09 119.45 501.75 117.49 484.4 115.21 467.05 113.96 458.38 112.72 449.7 110.45 432.36 108.5 415.01 107.38 397.66 106.87 380.31 107.43 362.97 108.6 345.62 110.58 328.27 112.87 310.93 114.12 302.25 115.36 293.58 117.62 276.23 119.55 258.88 120.64 241.54 121.12 224.19 120.53 206.84 119.33 189.49 117.33 172.15 115.03 154.8 113.78 146.13 112.54 137.45 110.29 120.1 108.38 102.76" stroke-dasharray="7 7" transform="rotate(0, 400, 400)" opacity="0.56"></path><path d="M120.08 115.64Q136.68 119.91 153.28 124.75 169.88 129.62 186.47 133.97 203.07 137.31 219.67 139.26 236.27 139.61 252.87 138.32 269.47 135.52 286.07 131.54 302.67 126.83 319.27 121.91 335.87 117.33 352.46 113.62 369.06 111.19 385.66 110.31 402.26 111.08 418.86 113.42 435.46 117.06 452.06 121.6 468.66 126.51 485.26 131.26 501.86 135.3 518.45 138.18 535.05 139.58 551.65 139.34 568.25 137.48 584.85 134.22 601.45 129.92 618.05 125.07 634.65 120.21 651.25 115.89 662.09 132.67 674.38 149.46 686.74 166.25 697.78 183.04 706.25 199.83 711.21 216.61 712.1 233.4 708.81 250.19 701.72 266.98 691.62 283.76 679.65 300.55 667.15 317.34 655.54 334.13 646.12 350.92 639.95 367.7 637.72 384.49 639.68 401.28 645.62 418.07 654.86 434.85 666.37 451.64 678.84 468.43 690.89 485.22 701.15 502.01 708.46 518.79 712.01 535.58 711.4 552.37 706.69 569.16 698.41 585.95 687.5 602.73 675.18 619.52 662.85 636.31 651.88 653.1 635.26 663.49 618.65 675.17 602.03 686.84 585.42 697.17 568.8 705.01 552.19 709.47 535.57 710.06 518.96 706.69 502.34 699.76 485.73 690.05 469.11 678.64 452.5 666.82 435.89 655.92 419.27 647.17 402.66 641.54 386.04 639.68 369.43 641.8 352.81 647.65 336.2 656.57 319.58 667.57 302.97 679.4 286.35 690.74 269.74 700.3 253.13 707.02 236.51 710.14 219.9 709.3 203.28 704.6 186.67 696.57 170.05 686.12 153.44 674.41 136.82 662.77 120.21 652.5 122.48 635.72 125.03 618.95 127.58 602.17 129.84 585.39 131.56 568.62 132.53 551.84 132.66 535.06 131.92 518.29 130.41 501.51 128.29 484.73 125.79 467.95 123.21 451.18 120.83 434.4 118.91 417.62 117.68 400.85 117.28 384.07 117.74 367.29 119.02 350.52 120.97 333.74 123.37 316.96 125.96 300.19 128.44 283.41 130.53 266.63 132 249.85 132.68 233.08 132.49 216.3 131.47 199.52 129.71 182.75 127.43 165.97 124.87 149.19 122.32 132.42 120.08 115.64" stroke-dasharray="2 2" transform="rotate(4.04, 400, 400)" opacity="0.33"></path><path d="M132.2 129.09Q148.29 133.72 164.38 138.58 180.48 143.18 196.57 147.03 212.67 149.73 228.76 151.01 244.86 150.73 260.95 148.93 277.05 145.78 293.14 141.61 309.23 136.87 325.33 132.03 341.42 127.6 357.52 124.05 373.61 121.73 389.71 120.9 405.8 121.63 421.9 123.85 437.99 127.33 454.08 131.71 470.18 136.54 486.27 141.31 502.37 145.53 518.46 148.75 534.56 150.66 550.65 151.04 566.75 149.87 582.84 147.25 598.93 143.46 615.03 138.9 631.12 134.04 647.22 129.38 658.46 145.61 670.28 161.84 681.45 178.07 690.8 194.3 697.37 210.53 700.48 226.76 699.81 242.99 695.42 259.22 687.76 275.44 677.65 291.67 666.11 307.9 654.36 324.13 643.6 340.36 634.96 356.59 629.34 372.82 627.31 389.05 629.08 405.28 634.48 421.51 642.94 437.74 653.59 453.96 665.32 470.19 676.9 486.42 687.15 502.65 695 518.88 699.63 535.11 700.56 551.34 697.7 567.57 691.34 583.8 682.14 600.03 671.06 616.25 659.25 632.48 647.93 648.71 631.82 659.48 615.71 670.72 599.59 681.26 583.48 690 567.37 696.05 551.26 698.78 535.15 697.89 519.04 693.49 502.92 686.02 486.81 676.27 470.7 665.25 454.59 654.1 438.48 643.97 422.37 635.92 406.25 630.79 390.14 629.1 374.03 631.03 357.92 636.38 341.81 644.6 325.7 654.83 309.58 666.01 293.47 676.98 277.36 686.6 261.25 693.88 245.14 698.06 229.03 698.7 212.91 695.75 196.8 689.49 180.69 680.59 164.58 669.97 148.47 658.73 132.36 648.04 134.92 631.82 137.6 615.6 140.1 599.38 142.19 583.17 143.63 566.95 144.28 550.73 144.07 534.52 143.02 518.3 141.24 502.08 138.92 485.87 136.29 469.65 133.64 453.43 131.23 437.21 129.31 421 128.09 404.78 127.69 388.56 128.15 372.35 129.42 356.13 131.38 339.91 133.81 323.69 136.47 307.48 139.09 291.26 141.38 275.04 143.11 258.83 144.11 242.61 144.26 226.39 143.56 210.18 142.07 193.96 139.95 177.74 137.42 161.52 134.74 145.31 132.2 129.09" stroke-dasharray="6 1" transform="rotate(8.08, 400, 400)" opacity="0.56"></path><path d="M144.71 143.02Q160.31 147.78 175.9 152.47 191.5 156.64 207.09 159.89 222.69 161.9 238.28 162.5 253.88 161.62 269.47 159.34 285.06 155.89 300.66 151.58 316.25 146.84 331.85 142.12 347.44 137.86 363.04 134.47 378.63 132.27 394.23 131.48 409.82 132.17 425.42 134.27 441.01 137.59 456.61 141.8 472.2 146.51 487.79 151.26 503.39 155.61 518.98 159.13 534.58 161.5 550.17 162.49 565.77 161.99 581.36 160.07 596.96 156.9 612.55 152.79 628.15 148.12 643.74 143.34 654.83 159.02 665.74 174.69 675.44 190.36 682.99 206.04 687.69 221.71 689.08 237.38 687.02 253.06 681.72 268.73 673.69 284.4 663.67 300.07 652.64 315.75 641.65 331.42 631.73 347.09 623.85 362.77 618.74 378.44 616.9 394.11 618.5 409.78 623.39 425.46 631.11 441.13 640.91 456.8 651.86 472.48 662.92 488.15 673.04 503.82 681.24 519.5 686.75 535.17 689.05 550.84 687.9 566.51 683.42 582.19 676.05 597.86 666.47 613.53 655.61 629.21 644.5 644.88 628.89 655.49 613.28 665.87 597.66 675.02 582.05 682.06 566.44 686.34 550.83 687.44 535.21 685.25 519.6 679.98 503.99 672.15 488.38 662.48 472.76 651.91 457.15 641.45 441.54 632.08 425.93 624.71 410.31 620.04 394.7 618.51 379.09 620.27 363.48 625.15 347.86 632.68 332.25 642.15 316.64 652.66 301.03 663.2 285.41 672.76 269.8 680.44 254.19 685.5 238.58 687.47 222.96 686.14 207.35 681.66 191.74 674.44 176.13 665.17 160.51 654.75 144.9 644.15 147.64 628.49 150.32 612.83 152.68 597.17 154.5 581.51 155.6 565.85 155.88 550.19 155.32 534.53 153.96 518.87 151.94 503.21 149.44 487.55 146.72 471.89 144.01 456.23 141.6 440.57 139.7 424.91 138.49 409.25 138.09 393.59 138.55 377.93 139.81 362.27 141.75 346.6 144.2 330.94 146.91 315.28 149.63 299.62 152.1 283.96 154.08 268.3 155.39 252.64 155.89 236.98 155.55 221.32 154.39 205.66 152.53 190 150.14 174.34 147.45 158.68 144.71 143.02" stroke-dasharray="0 8" transform="rotate(12.12, 400, 400)" opacity="0.43"></path><path d="M157.58 157.3Q172.67 161.98 187.76 166.31 202.85 169.92 217.94 172.48 233.03 173.78 248.12 173.7 263.21 172.25 278.3 169.56 293.39 165.85 308.48 161.46 323.57 156.77 338.66 152.18 353.75 148.1 368.84 144.89 383.93 142.82 399.02 142.07 414.1 142.72 429.19 144.69 444.28 147.83 459.37 151.86 474.46 156.42 489.55 161.12 504.64 165.55 519.73 169.32 534.82 172.1 549.91 173.64 565 173.82 580.09 172.62 595.18 170.14 610.27 166.61 625.36 162.31 640.45 157.65 650.88 172.76 660.54 187.87 668.58 202.98 674.3 218.1 677.2 233.21 677.02 248.32 673.79 263.44 667.78 278.55 659.52 293.66 649.73 308.77 639.26 323.89 629.03 339 619.94 354.11 612.77 369.22 608.15 384.34 606.49 399.45 607.93 414.56 612.34 429.67 619.34 444.79 628.32 459.9 638.49 475.01 648.97 490.12 658.84 505.24 667.24 520.35 673.44 535.46 676.89 550.57 677.29 565.69 674.61 580.8 669.08 595.91 661.19 611.02 651.63 626.14 641.22 641.25 626.11 651.24 611 660.42 595.9 667.99 580.79 673.29 565.68 675.86 550.58 675.48 535.47 672.17 520.36 666.22 505.25 658.16 490.15 648.69 475.04 638.63 459.93 628.87 444.82 620.25 429.72 613.54 414.61 609.3 399.5 607.92 384.4 609.52 369.29 613.95 354.18 620.83 339.07 629.56 323.97 639.37 308.86 649.41 293.75 658.81 278.65 666.74 263.54 672.5 248.43 675.61 233.32 675.78 218.22 673 203.11 667.51 188 659.79 172.89 650.52 157.79 640.51 160.57 625.41 163.13 610.31 165.24 595.21 166.71 580.11 167.43 565.01 167.32 549.91 166.4 534.81 164.74 519.71 162.5 504.61 159.86 489.51 157.06 474.41 154.34 459.31 151.94 444.21 150.07 429.11 148.89 414.01 148.5 398.91 148.95 383.81 150.18 368.71 152.1 353.61 154.53 338.51 157.26 323.4 160.06 308.3 162.68 293.2 164.89 278.1 166.49 263 167.36 247.9 167.41 232.8 166.63 217.7 165.1 202.6 162.95 187.5 160.37 172.4 157.58 157.3" stroke-dasharray="9 4" transform="rotate(16.16, 400, 400)" opacity="0.95"></path><path d="M170.72 171.79Q185.29 176.18 199.86 179.99 214.43 182.93 229 184.76 243.57 185.33 258.14 184.6 272.72 182.63 287.29 179.58 301.86 175.68 316.43 171.25 331 166.64 345.57 162.22 360.14 158.34 374.71 155.3 389.28 153.36 403.85 152.66 418.42 153.26 432.99 155.11 447.56 158.07 462.13 161.9 476.7 166.29 491.27 170.9 505.84 175.36 520.41 179.31 534.98 182.44 549.55 184.5 564.12 185.32 578.69 184.85 593.26 183.11 607.83 180.25 622.41 176.49 636.98 172.14 646.35 186.68 654.49 201.23 660.77 215.77 664.68 230.31 665.91 244.85 664.35 259.39 660.14 273.93 653.62 288.48 645.29 303.02 635.82 317.56 625.97 332.1 616.52 346.64 608.22 361.18 601.73 375.73 597.58 390.27 596.08 404.81 597.36 419.35 601.33 433.89 607.65 448.44 615.83 462.98 625.22 477.52 635.07 492.06 644.59 506.6 653.03 521.14 659.72 535.69 664.12 550.23 665.89 564.77 664.87 579.31 661.16 593.85 655.05 608.4 647.02 622.94 637.72 637.48 623.13 646.45 608.55 654.19 593.96 660.08 579.37 663.66 564.79 664.63 550.2 662.93 535.61 658.69 521.02 652.24 506.44 644.1 491.85 634.92 477.26 625.43 462.68 616.37 448.09 608.49 433.5 602.39 418.92 598.57 404.33 597.33 389.74 598.78 375.15 602.78 360.57 609.04 345.98 617.04 331.39 626.15 316.81 635.64 302.22 644.77 287.63 652.8 273.05 659.1 258.46 663.16 243.87 664.65 229.29 663.47 214.7 659.7 200.11 653.65 185.52 645.8 170.94 636.76 173.62 622.23 175.94 607.7 177.71 593.17 178.78 578.64 179.07 564.11 178.56 549.58 177.29 535.05 175.36 520.52 172.92 505.99 170.17 491.46 167.33 476.93 164.62 462.4 162.25 447.87 160.43 433.34 159.28 418.81 158.91 404.28 159.34 389.75 160.54 375.22 162.42 360.69 164.81 346.16 167.54 331.63 170.39 317.1 173.12 302.57 175.53 288.04 177.41 273.5 178.63 258.97 179.08 244.44 178.72 229.91 177.59 215.38 175.78 200.85 173.43 186.32 170.72 171.79" stroke-dasharray="10 7" transform="rotate(20.200000000000003, 400, 400)" opacity="0.50"></path><path d="M184.03 186.33Q198.06 190.23 212.09 193.39 226.12 195.59 240.15 196.65 254.18 196.52 268.21 195.19 282.24 192.76 296.27 189.41 310.3 185.38 324.33 180.96 338.36 176.47 352.39 172.24 366.42 168.56 380.44 165.72 394.47 163.9 408.5 163.25 422.53 163.8 436.56 165.53 450.59 168.3 464.62 171.92 478.65 176.12 492.68 180.6 506.71 185.03 520.74 189.11 534.77 192.52 548.8 195.03 562.83 196.45 576.86 196.69 590.89 195.72 604.92 193.61 618.95 190.52 632.98 186.66 640.97 200.62 647.45 214.57 651.95 228.53 654.13 242.49 653.85 256.44 651.13 270.4 646.15 284.35 639.29 298.31 631.03 312.26 621.97 326.22 612.78 340.17 604.1 354.13 596.57 368.08 590.73 382.04 587.01 395.99 585.67 409.95 586.81 423.9 590.35 437.86 596.03 451.81 603.44 465.77 612.05 479.73 621.23 493.68 630.32 507.64 638.67 521.59 645.67 535.55 650.81 549.5 653.72 563.46 654.2 577.41 652.21 591.37 647.89 605.32 641.55 619.28 633.66 633.23 619.62 640.88 605.57 647.02 591.53 651.2 577.48 653.13 563.44 652.67 549.4 649.84 535.35 644.86 521.31 638.08 507.26 630 493.22 621.19 479.17 612.3 465.13 603.96 451.09 596.78 437.04 591.28 423 587.85 408.95 586.75 394.91 588.04 380.87 591.65 366.82 597.3 352.78 604.6 338.73 613 324.69 621.91 310.64 630.68 296.6 638.68 282.56 645.33 268.51 650.15 254.47 652.79 240.42 653.06 226.38 650.94 212.33 646.59 198.29 640.31 184.25 632.57 186.7 618.62 188.67 604.68 190.01 590.73 190.63 576.79 190.48 562.84 189.58 548.9 187.98 534.95 185.8 521.01 183.21 507.06 180.38 493.12 177.52 479.17 174.85 465.23 172.54 451.28 170.78 437.34 169.68 423.39 169.32 409.45 169.74 395.5 170.89 381.56 172.71 367.61 175.05 353.67 177.75 339.72 180.61 325.78 183.43 311.83 186 297.89 188.13 283.94 189.68 270 190.52 256.05 190.61 242.11 189.93 228.16 188.53 214.22 186.52 200.27 184.03 186.33" stroke-dasharray="5 4" transform="rotate(24.24, 400, 400)" opacity="0.80"></path><path d="M197.39 200.74Q210.85 204 224.31 206.41 237.77 207.82 251.23 208.13 264.69 207.32 278.15 205.45 291.62 202.63 305.08 199.06 318.54 194.96 332 190.6 345.46 186.26 358.92 182.24 372.38 178.78 385.84 176.13 399.3 174.44 412.76 173.83 426.23 174.35 439.69 175.95 453.15 178.53 466.61 181.92 480.07 185.91 493.53 190.23 506.99 194.59 520.45 198.73 533.91 202.36 547.37 205.24 560.84 207.2 574.3 208.1 587.76 207.89 601.22 206.57 614.68 204.24 628.14 201.04 634.55 214.39 639.3 227.74 642.06 241.09 642.67 254.44 641.09 267.79 637.41 281.13 631.87 294.48 624.84 307.83 616.78 321.18 608.21 334.53 599.69 347.88 591.78 361.23 584.99 374.58 579.77 387.93 576.46 401.28 575.26 414.63 576.27 427.98 579.41 441.32 584.49 454.67 591.16 468.02 598.99 481.37 607.48 494.72 616.07 508.07 624.19 521.42 631.33 534.77 637 548.12 640.85 561.47 642.62 574.82 642.2 588.17 639.61 601.51 635.02 614.86 628.74 628.21 615.26 634.33 601.79 638.8 588.32 641.32 574.84 641.73 561.37 640.01 547.9 636.26 534.42 630.73 520.95 623.79 507.48 615.88 494 607.52 480.53 599.26 467.06 591.63 453.58 585.14 440.11 580.2 426.64 577.14 413.16 576.16 399.69 577.32 386.22 580.55 372.74 585.63 359.27 592.24 345.8 599.94 332.32 608.23 318.85 616.58 305.38 624.42 291.9 631.26 278.43 636.65 264.96 640.23 251.48 641.78 238.01 641.19 224.54 638.49 211.06 633.87 197.59 627.63 199.69 614.29 201.22 600.95 202.08 587.61 202.23 574.27 201.63 560.93 200.35 547.59 198.45 534.25 196.07 520.91 193.36 507.57 190.49 494.23 187.65 480.89 185.04 467.55 182.81 454.2 181.12 440.86 180.07 427.52 179.73 414.18 180.13 400.84 181.24 387.5 182.98 374.16 185.25 360.82 187.89 347.48 190.73 334.14 193.6 320.8 196.29 307.46 198.63 294.12 200.48 280.78 201.71 267.44 202.24 254.1 202.04 240.76 201.11 227.42 199.53 214.08 197.39 200.74" stroke-dasharray="7 11" transform="rotate(28.28, 400, 400)" opacity="0.95"></path><path d="M210.66 214.84Q223.52 217.34 236.38 218.95 249.24 219.57 262.1 219.15 274.96 217.73 287.82 215.39 300.68 212.26 313.55 208.53 326.41 204.42 339.27 200.17 352.13 196.02 364.99 192.23 377.85 189 390.71 186.54 403.57 184.98 416.43 184.42 429.29 184.89 442.16 186.36 455.02 188.75 467.88 191.91 480.74 195.67 493.6 199.79 506.46 204.04 519.32 208.18 532.18 211.95 545.04 215.14 557.9 217.56 570.76 219.06 583.63 219.57 596.49 219.05 609.35 217.52 622.21 215.09 626.94 227.81 629.97 240.53 631.13 253.25 630.35 265.98 627.67 278.7 623.25 291.42 617.36 304.14 610.33 316.86 602.57 329.58 594.55 342.3 586.73 355.02 579.57 367.74 573.49 380.46 568.85 393.18 565.91 405.9 564.85 418.63 565.74 431.35 568.51 444.07 573.01 456.79 578.98 469.51 586.06 482.23 593.84 494.95 601.86 507.67 609.66 520.39 616.77 533.11 622.78 545.83 627.34 558.55 630.18 571.28 631.14 584 630.15 596.72 627.28 609.44 622.69 622.16 609.82 626.65 596.95 629.45 584.08 630.42 571.21 629.49 558.34 626.71 545.47 622.24 532.6 616.36 519.73 609.4 506.86 601.78 493.99 593.93 481.12 586.32 468.25 579.39 455.37 573.56 442.5 569.15 429.63 566.44 416.76 565.57 403.89 566.61 391.02 569.48 378.15 574.02 365.28 579.97 352.41 586.98 339.54 594.63 326.67 602.47 313.8 610.06 300.93 616.94 288.06 622.71 275.19 627.03 262.31 629.65 249.44 630.41 236.57 629.28 223.7 626.31 210.83 621.68 212.47 608.97 213.5 596.26 213.85 583.54 213.51 570.83 212.49 558.11 210.86 545.4 208.71 532.69 206.17 519.97 203.38 507.26 200.51 494.54 197.72 481.83 195.19 469.12 193.06 456.4 191.45 443.69 190.45 430.97 190.14 418.26 190.52 405.55 191.57 392.83 193.23 380.12 195.4 367.4 197.97 354.69 200.76 341.98 203.63 329.26 206.41 316.55 208.92 303.83 211.03 291.12 212.61 278.41 213.57 265.69 213.85 252.98 213.43 240.26 212.35 227.55 210.66 214.84" stroke-dasharray="9 3" transform="rotate(32.32, 400, 400)" opacity="0.41"></path><path d="M223.7 228.46Q235.93 230.14 248.15 230.93 260.38 230.78 272.61 229.69 284.84 227.74 297.06 225.01 309.29 221.66 321.52 217.85 333.75 213.79 345.97 209.69 358.2 205.76 370.43 202.21 382.66 199.22 394.89 196.95 407.11 195.52 419.34 195.01 431.57 195.43 443.8 196.78 456.02 198.97 468.25 201.9 480.48 205.4 492.71 209.3 504.93 213.4 517.16 217.47 529.39 221.31 541.62 224.72 553.84 227.51 566.07 229.55 578.3 230.71 590.53 230.95 602.75 230.26 614.98 228.66 618.03 240.73 619.45 252.79 619.17 264.86 617.22 276.93 613.68 289 608.74 301.07 602.67 313.14 595.78 325.21 588.43 337.28 581.01 349.35 573.9 361.42 567.47 373.49 562.06 385.55 557.96 397.62 555.38 409.69 554.45 421.76 555.22 433.83 557.65 445.9 561.62 457.97 566.91 470.04 573.25 482.11 580.32 494.18 587.73 506.25 595.1 518.31 602.05 530.38 608.21 542.45 613.27 554.52 616.95 566.59 619.06 578.66 619.5 590.73 618.23 602.8 615.34 614.87 603.1 617.72 590.87 618.96 578.63 618.53 566.4 616.45 554.16 612.83 541.93 607.86 529.7 601.8 517.46 594.97 505.23 587.72 492.99 580.43 480.76 573.48 468.52 567.24 456.29 562.04 444.05 558.13 431.82 555.74 419.59 554.98 407.35 555.9 395.12 558.44 382.88 562.48 370.65 567.79 358.41 574.11 346.18 581.11 333.94 588.41 321.71 595.64 309.47 602.41 297.24 608.38 285.01 613.24 272.77 616.71 260.54 618.64 248.3 618.91 236.07 617.51 223.83 614.52 224.94 602.46 225.42 590.39 225.26 578.33 224.45 566.26 223.04 554.2 221.11 542.13 218.75 530.07 216.1 518 213.28 505.94 210.44 493.88 207.74 481.81 205.31 469.75 203.29 457.68 201.77 445.62 200.84 433.55 200.55 421.49 200.9 409.43 201.89 397.36 203.46 385.3 205.53 373.23 207.99 361.17 210.71 349.1 213.55 337.04 216.36 324.98 218.99 312.91 221.31 300.85 223.2 288.78 224.55 276.72 225.3 264.65 225.41 252.59 224.86 240.52 223.7 228.46" stroke-dasharray="7 10" transform="rotate(36.36, 400, 400)" opacity="0.95"></path><path d="M236.37 241.46Q247.93 242.29 259.49 242.28 271.06 241.42 282.62 239.75 294.18 237.35 305.74 234.34 317.3 230.84 328.86 227.03 340.42 223.07 351.98 219.16 363.55 215.47 375.11 212.18 386.67 209.44 398.23 207.36 409.79 206.07 421.35 205.6 432.91 205.98 444.47 207.2 456.03 209.19 467.6 211.88 479.16 215.12 490.72 218.78 502.28 222.67 513.84 226.63 525.4 230.47 536.96 234 548.52 237.08 560.09 239.54 571.65 241.29 583.21 242.23 601.27 247.65 607.76 264.37 606.26 275.76 603.37 287.16 599.2 298.55 593.96 309.95 587.89 321.34 581.26 332.74 574.39 344.13 567.6 355.52 561.19 366.92 555.47 378.31 550.71 389.71 547.11 401.1 544.85 412.49 544.04 423.89 544.7 435.28 546.82 446.68 550.29 458.07 554.95 469.47 560.58 480.86 566.93 492.25 573.7 503.65 580.58 515.04 587.24 526.44 593.38 537.83 598.72 549.23 603 560.62 606.03 572.01 607.67 583.41 601.41 601.14 583.41 607.32 571.85 605.7 560.28 602.7 548.72 598.46 537.15 593.19 525.59 587.11 514.02 580.52 502.46 573.73 490.89 567.03 479.33 560.76 467.76 555.18 456.2 550.58 444.63 547.15 433.06 545.06 421.5 544.4 409.93 545.2 398.37 547.43 386.8 550.99 375.24 555.71 363.67 561.36 352.11 567.69 340.54 574.41 328.98 581.2 317.41 587.75 305.85 593.76 294.28 598.94 282.72 603.06 271.15 605.92 259.59 607.4 242.51 601.01 236.92 583.21 236.25 571.81 235.01 560.42 233.27 549.03 231.09 537.64 228.58 526.25 225.86 514.86 223.06 503.46 220.3 492.07 217.71 480.68 215.41 469.29 213.51 457.9 212.09 446.51 211.23 435.12 210.96 423.72 211.29 412.33 212.21 400.94 213.68 389.55 215.62 378.16 217.96 366.77 220.57 355.37 223.34 343.98 226.14 332.59 228.85 321.2 231.32 309.81 233.46 298.42 235.16 287.03 236.34 275.63 236.95 264.24 236.96 252.85 236.37 241.46" stroke-dasharray="0 4" transform="rotate(40.400000000000006, 400, 400)" opacity="0.10"></path><path d="M248.55 253.7Q259.42 253.72 270.28 252.97 281.14 251.49 292.01 249.33 302.87 246.59 313.73 243.38 324.6 239.83 335.46 236.08 346.33 232.29 357.19 228.6 368.05 225.18 378.92 222.16 389.78 219.66 400.64 217.78 411.51 216.61 422.37 216.18 433.24 216.53 444.1 217.62 454.96 219.42 465.83 221.86 476.69 224.83 487.55 228.22 498.42 231.88 509.28 235.67 520.15 239.43 531.01 243.02 541.87 246.27 552.74 249.06 563.6 251.29 574.46 252.84 590.77 259.06 594.96 275.14 592.49 285.84 588.9 296.53 584.33 307.23 578.98 317.93 573.06 328.63 566.8 339.33 560.48 350.02 554.34 360.72 548.63 371.42 543.59 382.12 539.42 392.82 536.29 403.51 534.34 414.21 533.63 424.91 534.2 435.61 536.02 446.31 539.03 457 543.09 467.7 548.05 478.4 553.7 489.1 559.81 499.79 566.12 510.49 572.4 521.19 578.37 531.89 583.79 542.59 588.45 553.28 592.16 563.98 594.76 574.68 590.77 590.67 574.53 594.58 563.66 592 552.8 588.32 541.93 583.69 531.07 578.29 520.2 572.35 509.34 566.12 498.47 559.84 487.61 553.76 476.74 548.15 465.88 543.22 455.01 539.18 444.15 536.19 433.28 534.38 422.42 533.81 411.55 534.51 400.69 536.46 389.82 539.57 378.96 543.71 368.09 548.72 357.23 554.4 346.36 560.5 335.5 566.79 324.63 573.01 313.77 578.9 302.9 584.22 292.04 588.76 281.17 592.33 270.31 594.79 253.99 590.67 247.93 574.62 246.8 563.92 245.19 553.22 243.16 542.53 240.81 531.83 238.21 521.13 235.49 510.44 232.74 499.74 230.09 489.04 227.63 478.34 225.48 467.65 223.71 456.95 222.41 446.25 221.61 435.56 221.36 424.86 221.67 414.16 222.52 403.46 223.88 392.77 225.69 382.07 227.88 371.37 230.36 360.68 233.03 349.98 235.78 339.28 238.5 328.58 241.07 317.89 243.4 307.19 245.38 296.49 246.94 285.8 248.02 275.1 248.56 264.4 248.55 253.7" stroke-dasharray="7 7" transform="rotate(44.44, 400, 400)" opacity="0.60"></path><path d="M260.13 265.1Q270.27 264.36 280.41 262.97 290.55 260.98 300.69 258.45 310.83 255.48 320.96 252.18 331.1 248.65 341.24 245.03 351.38 241.45 361.52 238.02 371.66 234.88 381.8 232.14 391.94 229.88 402.08 228.2 412.22 227.15 422.36 226.77 432.5 227.07 442.63 228.05 452.77 229.66 462.91 231.85 473.05 234.54 483.19 237.65 493.33 241.04 503.47 244.62 513.61 248.24 523.75 251.78 533.89 255.12 544.03 258.13 554.17 260.71 564.3 262.77 578.92 269.63 581.17 285.02 577.98 295 573.93 304.98 569.18 314.96 563.89 324.95 558.25 334.93 552.45 344.91 546.71 354.9 541.23 364.88 536.2 374.86 531.81 384.84 528.2 394.83 525.51 404.81 523.83 414.79 523.22 424.77 523.7 434.76 525.26 444.74 527.84 454.72 531.35 464.71 535.66 474.69 540.63 484.67 546.07 494.65 551.79 504.64 557.58 514.62 563.26 524.6 568.6 534.59 573.42 544.57 577.55 554.55 580.85 564.53 578.78 578.85 564.23 580.85 554.09 577.55 543.95 573.42 533.81 568.6 523.67 563.25 513.54 557.58 503.4 551.79 493.26 546.07 483.12 540.63 472.99 535.67 462.85 531.35 452.71 527.84 442.57 525.27 432.43 523.71 422.3 523.22 412.16 523.83 402.02 525.51 391.88 528.2 381.75 531.81 371.61 536.21 361.47 541.23 351.33 546.71 341.19 552.45 331.06 558.25 320.92 563.89 310.78 569.18 300.64 573.93 290.51 577.98 280.37 581.17 264.86 579 258.41 564.61 256.88 554.63 254.97 544.65 252.74 534.66 250.27 524.68 247.65 514.69 244.97 504.71 242.33 494.73 239.82 484.74 237.52 474.76 235.53 464.78 233.91 454.79 232.72 444.81 232 434.82 231.77 424.84 232.05 414.86 232.83 404.87 234.08 394.89 235.74 384.91 237.77 374.92 240.1 364.94 242.63 354.95 245.28 344.97 247.96 334.99 250.57 325 253.01 315.02 255.21 305.04 257.08 295.05 258.55 285.07 259.58 275.09 260.13 265.1" stroke-dasharray="4 8" transform="rotate(48.48, 400, 400)" opacity="0.27"></path><path d="M271.02 275.59Q280.42 274.21 289.81 272.3 299.2 269.92 308.59 267.14 317.99 264.05 327.38 260.75 336.77 257.33 346.16 253.91 355.56 250.57 364.95 247.43 374.34 244.59 383.73 242.13 393.13 240.12 402.52 238.63 411.91 237.7 421.3 237.36 430.7 237.62 440.09 238.48 449.48 239.9 458.87 241.85 468.27 244.26 477.66 247.06 487.05 250.17 496.44 253.49 505.84 256.91 515.23 260.33 524.62 263.66 534.01 266.77 543.41 269.59 552.8 272.03 565.82 279.35 566.52 293.96 562.86 303.21 558.59 312.46 553.85 321.71 548.77 330.97 543.52 340.22 538.25 349.47 533.12 358.72 528.3 367.98 523.93 377.23 520.14 386.48 517.05 395.73 514.76 404.99 513.33 414.24 512.81 423.49 513.22 432.74 514.53 442 516.72 451.25 519.72 460.5 523.42 469.75 527.73 479.01 532.5 488.26 537.6 497.51 542.86 506.76 548.13 516.02 553.23 525.27 558.03 534.52 562.36 543.77 566.1 553.03 554.38 564.13 533.81 558.12 524.42 553.29 515.03 548.16 505.64 542.86 496.25 537.57 486.87 532.44 477.48 527.64 468.09 523.31 458.7 519.58 449.31 516.57 439.92 514.37 430.53 513.04 421.14 512.63 411.75 513.16 402.36 514.59 392.98 516.9 383.59 520.01 374.2 523.82 364.81 528.21 355.42 533.06 346.03 538.22 336.64 543.52 327.25 548.8 317.86 553.91 308.47 558.68 299.09 562.98 289.7 566.66 275.07 566.05 268.33 553.24 266.5 543.99 264.37 534.73 262.02 525.48 259.51 516.22 256.93 506.97 254.35 497.71 251.85 488.46 249.5 479.2 247.39 469.95 245.57 460.69 244.1 451.44 243.03 442.18 242.38 432.93 242.18 423.67 242.44 414.42 243.14 405.16 244.26 395.91 245.78 386.65 247.64 377.4 249.78 368.14 252.15 358.89 254.66 349.63 257.25 340.38 259.83 331.12 262.32 321.87 264.65 312.61 266.74 303.36 268.54 294.1 269.98 284.85 271.02 275.59" stroke-dasharray="8 2" transform="rotate(52.52, 400, 400)" opacity="0.82"></path><path d="M281.19 285.17Q298.45 280.98 315.71 275.45 332.97 269.15 350.23 262.73 367.49 256.85 384.75 252.13 402 249.06 419.26 247.95 436.52 248.92 453.78 251.87 471.04 256.49 488.3 262.31 505.56 268.72 522.82 275.05 540.08 280.65 557.34 284.94 551.17 301.96 543.01 318.98 533.7 336.01 524.22 353.03 515.55 370.05 508.58 387.07 504.04 404.1 502.4 421.12 503.84 438.14 508.19 455.17 515.02 472.19 523.6 489.21 533.06 506.23 542.41 523.26 545.21 545.59 522.5 542.53 505.25 533.07 488.01 523.5 470.76 514.81 453.51 507.9 436.26 503.5 419.01 502.05 401.76 503.7 384.51 508.3 367.26 515.35 350.01 524.13 332.76 533.72 315.51 543.14 298.26 551.4 281.01 557.64 277.72 540.61 273.42 523.58 268.55 506.55 263.63 489.52 259.16 472.5 255.6 455.47 253.34 438.44 252.59 421.41 253.44 404.38 255.81 387.35 259.43 370.32 263.95 353.29 268.88 336.26 273.73 319.23 277.98 302.2 281.19 285.17" stroke-dasharray="6 4" transform="rotate(56.56, 400, 400)" opacity="0.26"></path><path d="M290.61 293.85Q306.32 289.09 322.04 283.45 337.76 277.42 353.47 271.53 369.19 266.28 384.9 262.15 400.62 259.49 416.33 258.53 432.05 259.36 447.76 261.9 463.48 265.94 479.19 271.11 494.91 276.98 510.62 283.02 526.34 288.7 542.05 293.54 535.31 309.07 527.31 324.6 518.76 340.13 510.41 355.66 502.98 371.19 497.12 386.71 493.35 402.24 491.99 417.77 493.17 433.3 496.77 448.83 502.49 464.35 509.82 479.88 518.13 495.41 526.69 510.94 530.33 530.74 510.21 526.8 494.51 518.08 478.8 509.62 463.1 502.15 447.4 496.33 431.7 492.66 415.99 491.46 400.29 492.84 384.59 496.68 368.88 502.65 353.18 510.21 337.48 518.72 321.77 527.43 306.07 535.57 290.37 542.44 286.58 526.9 282.14 511.37 277.42 495.83 272.83 480.29 268.79 464.76 265.63 449.22 263.65 433.68 263 418.15 263.75 402.61 265.83 387.07 269.06 371.54 273.16 356 277.76 340.46 282.48 324.93 286.89 309.39 290.61 293.85" stroke-dasharray="3 10" transform="rotate(60.599999999999994, 400, 400)" opacity="0.82"></path><path d="M299.32 301.73Q313.48 296.71 327.65 291.2 341.81 285.6 355.98 280.33 370.15 275.75 384.31 272.2 398.48 269.94 412.64 269.12 426.81 269.81 440.97 271.97 455.14 275.42 469.3 279.93 483.47 285.16 497.63 290.75 511.8 296.28 525.97 301.35 519.13 315.38 511.63 329.41 504.02 343.44 496.84 357.47 490.6 371.5 485.77 385.53 482.69 399.57 481.58 413.6 482.53 427.63 485.46 441.66 490.16 455.69 496.29 469.72 503.42 483.75 511.02 497.78 514.92 515.28 497.15 511.04 483 503.25 468.84 495.95 454.69 489.66 440.54 484.84 426.39 481.84 412.24 480.87 398.08 482.01 383.93 485.17 369.78 490.12 355.63 496.51 341.48 503.87 327.32 511.67 313.17 519.36 299.02 526.37 294.99 512.33 290.59 498.29 286.16 484.25 282 470.21 278.41 456.17 275.67 442.13 273.96 428.09 273.41 414.05 274.06 400.01 275.85 385.97 278.67 371.93 282.31 357.89 286.51 343.85 290.95 329.81 295.33 315.77 299.32 301.73" stroke-dasharray="9 1" transform="rotate(64.64, 400, 400)" opacity="0.75"></path><path d="M307.39 308.92Q320.01 303.94 332.63 298.78 345.25 293.76 357.88 289.16 370.5 285.26 383.12 282.27 395.74 280.39 408.37 279.71 420.99 280.28 433.61 282.06 446.23 284.95 458.86 288.78 471.48 293.33 484.1 298.32 496.72 303.48 509.35 308.48 502.84 321.02 496.1 333.56 489.54 346.1 483.53 358.64 478.43 371.18 474.53 383.71 472.06 396.25 471.18 408.79 471.92 421.33 474.25 433.87 478.03 446.41 483.03 458.94 488.98 471.48 495.51 484.02 499.21 499.45 483.57 495.39 470.96 488.65 458.35 482.52 445.74 477.35 433.13 473.45 420.52 471.05 407.91 470.28 395.3 471.2 382.69 473.74 370.08 477.77 357.48 483.04 344.87 489.24 332.26 496.01 319.65 502.96 307.04 509.68 303 497.13 298.84 484.58 294.81 472.03 291.14 459.49 288.05 446.94 285.71 434.39 284.28 421.84 283.82 409.3 284.37 396.75 285.89 384.2 288.29 371.65 291.45 359.11 295.16 346.56 299.21 334.01 303.37 321.46 307.39 308.92" stroke-dasharray="5 2" transform="rotate(68.68, 400, 400)" opacity="0.74"></path><path d="M314.92 315.57Q326.02 310.91 337.12 306.29 348.22 301.95 359.31 298.06 370.41 294.82 381.51 292.38 392.61 290.85 403.7 290.3 414.8 290.75 425.9 292.19 436.99 294.54 448.09 297.7 459.19 301.53 470.29 305.84 484.01 318.3 480.84 337.22 475.38 348.28 470.51 359.34 466.45 370.4 463.38 381.46 461.46 392.52 460.77 403.58 461.33 414.64 463.14 425.7 466.09 436.76 470.06 447.82 474.86 458.87 480.27 469.93 471.04 478.91 447.56 469.36 436.47 465.23 425.39 462.16 414.31 460.29 403.22 459.7 392.14 460.42 381.05 462.42 369.97 465.6 358.88 469.82 347.8 474.89 336.71 480.56 318.17 484.08 306.96 470.52 303.43 459.45 300.29 448.39 297.7 437.32 295.77 426.25 294.6 415.18 294.23 404.11 294.68 393.05 295.93 381.98 297.93 370.91 300.59 359.84 303.77 348.77 307.33 337.71 311.1 326.64 314.92 315.57" stroke-dasharray="3 5" transform="rotate(72.72, 400, 400)" opacity="0.84"></path><path d="M322.07 321.89Q331.67 317.76 341.27 313.83 350.87 310.21 360.47 307.05 370.07 304.46 379.67 302.53 389.27 301.32 398.87 300.88 408.47 301.23 418.07 302.35 427.66 304.21 437.26 306.73 446.86 309.82 456.46 313.39 468.38 324.15 465.95 340.61 461.6 350.21 457.79 359.8 454.67 369.4 452.34 379 450.88 388.6 450.36 398.2 450.78 407.8 452.13 417.4 454.36 427 457.4 436.6 461.13 446.2 465.43 455.8 457.07 463.99 436.73 456.48 427.14 453.3 417.56 450.96 407.97 449.55 398.38 449.11 388.79 449.66 379.2 451.18 369.62 453.62 360.03 456.89 350.44 460.87 340.85 465.43 324.76 468.19 315.02 456.38 312.06 446.78 309.49 437.17 307.39 427.56 305.85 417.96 304.92 408.35 304.63 398.74 305 389.13 306 379.53 307.61 369.92 309.76 360.31 312.38 350.71 315.38 341.1 318.65 331.49 322.07 321.89" stroke-dasharray="4 6" transform="rotate(76.76, 400, 400)" opacity="0.71"></path><path d="M329.02 328.08Q345.28 321.47 361.55 316.17 377.82 312.72 394.08 311.47 410.35 312.56 426.62 315.88 442.88 321.07 459.15 327.61 451.52 343.93 445.38 360.26 441.39 376.58 439.95 392.91 441.21 409.23 445.04 425.55 446.71 446.06 426.11 443.9 409.86 439.85 393.61 438.52 377.37 440.04 361.12 444.25 344.87 450.72 328.62 458.78 323.12 442.44 318.75 426.1 315.96 409.76 315.04 393.43 316.09 377.09 319 360.75 323.46 344.41 329.02 328.08" stroke-dasharray="4 5" transform="rotate(80.80000000000001, 400, 400)" opacity="0.94"></path><path d="M335.94 334.37Q349.35 329.34 362.76 325.44 376.17 322.95 389.57 322.06 402.98 322.82 416.39 325.19 429.8 328.98 443.21 333.93 437.62 347.43 433.29 360.94 430.53 374.44 429.54 387.94 430.39 401.44 433.01 414.94 433.27 432.27 415.93 431.62 402.54 428.83 389.14 427.93 375.75 428.99 362.36 431.92 348.96 436.53 335.57 442.46 331.35 428.95 328.12 415.44 326.1 401.93 325.45 388.42 326.21 374.91 328.33 361.39 331.66 347.88 335.94 334.37" stroke-dasharray="9 2" transform="rotate(84.84, 400, 400)" opacity="0.20"></path><path d="M343.07 341Q353.69 337.52 364.31 334.89 374.93 333.24 385.55 332.65 396.17 333.13 406.79 334.68 420.86 344.28 421.52 362.07 419.77 372.8 419.13 383.53 419.65 394.26 421.3 404.99 420.5 419.14 406.4 419.67 395.79 417.9 385.18 417.35 374.57 418.03 363.96 419.91 346.57 419.53 337.61 405.41 336.28 394.68 335.86 383.94 336.37 373.21 337.8 362.47 340.06 351.74 343.07 341" stroke-dasharray="8 2" transform="rotate(88.88, 400, 400)" opacity="0.80"></path><path d="M350.59 348.19Q366.39 344.55 382.19 343.23 397.99 344.38 413.79 347.88 410.07 363.88 408.72 379.89 409.9 395.89 413.47 411.89 397.68 408.03 381.9 406.76 366.11 408.21 350.32 412.23 347.27 396.22 346.27 380.21 347.42 364.2 350.59 348.19" stroke-dasharray="3 3" transform="rotate(92.92, 400, 400)" opacity="0.12"></path><path d="M358.73 356.15Q369.19 354.44 379.66 353.82 394.52 360.44 398.31 377.17 394.36 392.25 379.46 396.17 363.06 392.43 356.68 377.4 357.22 366.77 358.73 356.15" stroke-dasharray="6 10" transform="rotate(96.96, 400, 400)" opacity="0.34"></path></g></svg>